<svg version="1.1" xmlns="http://www.w3.org/2000/svg" height="400" width="800"><defs><clipPath id="highcharts-5"><rect fill="none" height="260" width="670" y="0" x="0"></rect></clipPath></defs><rect stroke-width="0" stroke="#4572A7" fill="#FFFFFF" ry="5" rx="5" height="400" width="800" y="0" x="0"></rect><text class="highcharts-title" transform="rotate(0, 400, 20)" text-anchor="middle" style="color: rgb(62, 87, 111); font-size: 16px; font-family: 'lucida grande','lucida sans unicode',verdana,arial,helvetica,sans-serif;" fill="#3E576F" y="20" x="400"><tspan x="400">US and USSR nuclear stockpiles</tspan></text><text class="highcharts-subtitle" transform="rotate(0, 400, 40)" text-anchor="middle" style="color: rgb(109, 134, 159); font-family: 'lucida grande','lucida sans unicode',verdana,arial,helvetica,sans-serif; font-size: 12px;" fill="#6D869F" y="40" x="400"><tspan x="400">Source: </tspan><tspan dx="3" style="cursor: pointer;" onclick='location.href="http://thebulletin.metapress.com/content/c4120650912x74k7/fulltext.pdf"'>thebulletin.metapress.com</tspan></text><g  class="highcharts-grid"></g><g  class="highcharts-grid"><path stroke-width="1" stroke="#C0C0C0" fill="none" d="M 80 310.5 L 750 310.5"></path><path stroke-width="1" stroke="#C0C0C0" fill="none" d="M 80 258.5 L 750 258.5"></path><path stroke-width="1" stroke="#C0C0C0" fill="none" d="M 80 206.5 L 750 206.5"></path><path stroke-width="1" stroke="#C0C0C0" fill="none" d="M 80 154.5 L 750 154.5"></path><path stroke-width="1" stroke="#C0C0C0" fill="none" d="M 80 102.5 L 750 102.5"></path><path stroke-width="1" stroke="#C0C0C0" fill="none" d="M 80 50.5 L 750 50.5"></path></g><g transform="translate(80, 50)"  visibility="visible" clip-path="url(#highcharts-5)" class="highcharts-series"><path fill-opacity="0.75" fill="rgb(69,114,167)" d="M 56.33095662507495 259.9688 L 66.2834224598937 259.9428 76.23588829471245 259.8336 86.1883541295312 259.428 96.14081996434994 258.778 106.0932857991687 258.0812 116.04575163398745 256.672 125.9982174688062 254.774 135.95068330362494 252.5328 145.9031491384437 249.2724 155.85561497326245 244.1036 165.8080808080812 235.9864 175.76054664289995 226.4912 185.7130124777187 208.9256 195.66547831253746 179.5664 205.6179441473562 153.7432 215.57040998217497 134.5448 225.52287581699372 117.58760000000001 235.47534165181247 106.8132 245.42780748663122 98.50880000000001 255.38027332144998 93.6936 265.3327391562687 93.392 275.2852049910875 97.58840000000001 285.2376708259062 108.0352 295.190136660725 117.82160000000002 305.1426024955437 121.35760000000002 315.0950683303625 119.8288 325.0475341651812 114.85760000000002 335 109.20520000000002 344.9524658348187 109.382 354.9049316696375 115.3048 364.85739750445623 126.98920000000001 374.80986333927495 126.2456 384.76232917409374 130.9048 394.71479500891246 132.054 404.66726084373124 133.6192 414.61972667854997 137.9872 424.57219251336875 136.7184 434.5246583481875 134.6852 444.47712418300625 133.3436 454.429590017825 133.9676 464.38205585264376 133.1148 474.3345216874625 133.4112 484.28698752228127 137.3528 494.2394533571 143.62400000000002 504.19191919191877 150.7792 514.1443850267375 170.1076 524.0968508615563 183.31560000000002 534.049316696375 192.0048 544.0017825311937 194.714 553.9542483660125 196.8512 563.9067142008313 202.7532 573.85918003565 203.06 583.8116458704687 203.4708 593.7641117052875 203.7152 603.7165775401063 204.9996 613.669043374925 205.2596 623.6215092097437 205.53 633.5739750445625 205.8108 643.5264408793813 206.1384 653.4789067142 206.466 663.4313725490188 207.4592 663.4313725490188 260 56.33095662507495 260 z"></path><path transform="translate(1, 1)" stroke-opacity="0.05"  stroke-width="5" stroke="rgb(0, 0, 0)" fill="none" d="M 56.33095662507495 259.9688 L 66.2834224598937 259.9428 76.23588829471245 259.8336 86.1883541295312 259.428 96.14081996434994 258.778 106.0932857991687 258.0812 116.04575163398745 256.672 125.9982174688062 254.774 135.95068330362494 252.5328 145.9031491384437 249.2724 155.85561497326245 244.1036 165.8080808080812 235.9864 175.76054664289995 226.4912 185.7130124777187 208.9256 195.66547831253746 179.5664 205.6179441473562 153.7432 215.57040998217497 134.5448 225.52287581699372 117.58760000000001 235.47534165181247 106.8132 245.42780748663122 98.50880000000001 255.38027332144998 93.6936 265.3327391562687 93.392 275.2852049910875 97.58840000000001 285.2376708259062 108.0352 295.190136660725 117.82160000000002 305.1426024955437 121.35760000000002 315.0950683303625 119.8288 325.0475341651812 114.85760000000002 335 109.20520000000002 344.9524658348187 109.382 354.9049316696375 115.3048 364.85739750445623 126.98920000000001 374.80986333927495 126.2456 384.76232917409374 130.9048 394.71479500891246 132.054 404.66726084373124 133.6192 414.61972667854997 137.9872 424.57219251336875 136.7184 434.5246583481875 134.6852 444.47712418300625 133.3436 454.429590017825 133.9676 464.38205585264376 133.1148 474.3345216874625 133.4112 484.28698752228127 137.3528 494.2394533571 143.62400000000002 504.19191919191877 150.7792 514.1443850267375 170.1076 524.0968508615563 183.31560000000002 534.049316696375 192.0048 544.0017825311937 194.714 553.9542483660125 196.8512 563.9067142008313 202.7532 573.85918003565 203.06 583.8116458704687 203.4708 593.7641117052875 203.7152 603.7165775401063 204.9996 613.669043374925 205.2596 623.6215092097437 205.53 633.5739750445625 205.8108 643.5264408793813 206.1384 653.4789067142 206.466 663.4313725490188 207.4592"></path><path transform="translate(1, 1)" stroke-opacity="0.1"  stroke-width="3" stroke="rgb(0, 0, 0)" fill="none" d="M 56.33095662507495 259.9688 L 66.2834224598937 259.9428 76.23588829471245 259.8336 86.1883541295312 259.428 96.14081996434994 258.778 106.0932857991687 258.0812 116.04575163398745 256.672 125.9982174688062 254.774 135.95068330362494 252.5328 145.9031491384437 249.2724 155.85561497326245 244.1036 165.8080808080812 235.9864 175.76054664289995 226.4912 185.7130124777187 208.9256 195.66547831253746 179.5664 205.6179441473562 153.7432 215.57040998217497 134.5448 225.52287581699372 117.58760000000001 235.47534165181247 106.8132 245.42780748663122 98.50880000000001 255.38027332144998 93.6936 265.3327391562687 93.392 275.2852049910875 97.58840000000001 285.2376708259062 108.0352 295.190136660725 117.82160000000002 305.1426024955437 121.35760000000002 315.0950683303625 119.8288 325.0475341651812 114.85760000000002 335 109.20520000000002 344.9524658348187 109.382 354.9049316696375 115.3048 364.85739750445623 126.98920000000001 374.80986333927495 126.2456 384.76232917409374 130.9048 394.71479500891246 132.054 404.66726084373124 133.6192 414.61972667854997 137.9872 424.57219251336875 136.7184 434.5246583481875 134.6852 444.47712418300625 133.3436 454.429590017825 133.9676 464.38205585264376 133.1148 474.3345216874625 133.4112 484.28698752228127 137.3528 494.2394533571 143.62400000000002 504.19191919191877 150.7792 514.1443850267375 170.1076 524.0968508615563 183.31560000000002 534.049316696375 192.0048 544.0017825311937 194.714 553.9542483660125 196.8512 563.9067142008313 202.7532 573.85918003565 203.06 583.8116458704687 203.4708 593.7641117052875 203.7152 603.7165775401063 204.9996 613.669043374925 205.2596 623.6215092097437 205.53 633.5739750445625 205.8108 643.5264408793813 206.1384 653.4789067142 206.466 663.4313725490188 207.4592"></path><path transform="translate(1, 1)" stroke-opacity="0.15000000000000002"  stroke-width="1" stroke="rgb(0, 0, 0)" fill="none" d="M 56.33095662507495 259.9688 L 66.2834224598937 259.9428 76.23588829471245 259.8336 86.1883541295312 259.428 96.14081996434994 258.778 106.0932857991687 258.0812 116.04575163398745 256.672 125.9982174688062 254.774 135.95068330362494 252.5328 145.9031491384437 249.2724 155.85561497326245 244.1036 165.8080808080812 235.9864 175.76054664289995 226.4912 185.7130124777187 208.9256 195.66547831253746 179.5664 205.6179441473562 153.7432 215.57040998217497 134.5448 225.52287581699372 117.58760000000001 235.47534165181247 106.8132 245.42780748663122 98.50880000000001 255.38027332144998 93.6936 265.3327391562687 93.392 275.2852049910875 97.58840000000001 285.2376708259062 108.0352 295.190136660725 117.82160000000002 305.1426024955437 121.35760000000002 315.0950683303625 119.8288 325.0475341651812 114.85760000000002 335 109.20520000000002 344.9524658348187 109.382 354.9049316696375 115.3048 364.85739750445623 126.98920000000001 374.80986333927495 126.2456 384.76232917409374 130.9048 394.71479500891246 132.054 404.66726084373124 133.6192 414.61972667854997 137.9872 424.57219251336875 136.7184 434.5246583481875 134.6852 444.47712418300625 133.3436 454.429590017825 133.9676 464.38205585264376 133.1148 474.3345216874625 133.4112 484.28698752228127 137.3528 494.2394533571 143.62400000000002 504.19191919191877 150.7792 514.1443850267375 170.1076 524.0968508615563 183.31560000000002 534.049316696375 192.0048 544.0017825311937 194.714 553.9542483660125 196.8512 563.9067142008313 202.7532 573.85918003565 203.06 583.8116458704687 203.4708 593.7641117052875 203.7152 603.7165775401063 204.9996 613.669043374925 205.2596 623.6215092097437 205.53 633.5739750445625 205.8108 643.5264408793813 206.1384 653.4789067142 206.466 663.4313725490188 207.4592"></path><path stroke-width="2px" stroke="#4572A7" fill="none" d="M 56.33095662507495 259.9688 L 66.2834224598937 259.9428 76.23588829471245 259.8336 86.1883541295312 259.428 96.14081996434994 258.778 106.0932857991687 258.0812 116.04575163398745 256.672 125.9982174688062 254.774 135.95068330362494 252.5328 145.9031491384437 249.2724 155.85561497326245 244.1036 165.8080808080812 235.9864 175.76054664289995 226.4912 185.7130124777187 208.9256 195.66547831253746 179.5664 205.6179441473562 153.7432 215.57040998217497 134.5448 225.52287581699372 117.58760000000001 235.47534165181247 106.8132 245.42780748663122 98.50880000000001 255.38027332144998 93.6936 265.3327391562687 93.392 275.2852049910875 97.58840000000001 285.2376708259062 108.0352 295.190136660725 117.82160000000002 305.1426024955437 121.35760000000002 315.0950683303625 119.8288 325.0475341651812 114.85760000000002 335 109.20520000000002 344.9524658348187 109.382 354.9049316696375 115.3048 364.85739750445623 126.98920000000001 374.80986333927495 126.2456 384.76232917409374 130.9048 394.71479500891246 132.054 404.66726084373124 133.6192 414.61972667854997 137.9872 424.57219251336875 136.7184 434.5246583481875 134.6852 444.47712418300625 133.3436 454.429590017825 133.9676 464.38205585264376 133.1148 474.3345216874625 133.4112 484.28698752228127 137.3528 494.2394533571 143.62400000000002 504.19191919191877 150.7792 514.1443850267375 170.1076 524.0968508615563 183.31560000000002 534.049316696375 192.0048 544.0017825311937 194.714 553.9542483660125 196.8512 563.9067142008313 202.7532 573.85918003565 203.06 583.8116458704687 203.4708 593.7641117052875 203.7152 603.7165775401063 204.9996 613.669043374925 205.2596 623.6215092097437 205.53 633.5739750445625 205.8108 643.5264408793813 206.1384 653.4789067142 206.466 663.4313725490188 207.4592"></path></g><g transform="translate(80, 50)"  visibility="visible" clip-path="url(#highcharts-5)" class="highcharts-series"><path fill-opacity="0.75" fill="rgb(170,70,67)" d="M 106.0932857991687 259.974 L 116.04575163398745 259.87 125.9982174688062 259.74 135.95068330362494 259.376 145.9031491384437 259.22 155.85561497326245 258.96 165.8080808080812 257.7848 175.76054664289995 256.568 185.7130124777187 255.4812 195.66547831253746 254.488 205.6179441473562 251.654 215.57040998217497 247.1508 225.52287581699372 242.7256 235.47534165181247 237.9624 245.42780748663122 232.8508 255.38027332144998 228.1292 265.3327391562687 223.1372 275.2852049910875 216.6372 285.2376708259062 211.1252 295.190136660725 205.2024 305.1426024955437 199.4564 315.0950683303625 191.9216 325.0475341651812 184.7144 335 177.24200000000002 344.9524658348187 169.598 354.9049316696375 160.914 364.85739750445623 149.734 374.80986333927495 140.1712 384.76232917409374 127.9564 394.71479500891246 114.738 404.66726084373124 103.67760000000001 414.61972667854997 93.3452 424.57219251336875 83.4496 434.5246583481875 73.8192 444.47712418300625 65.3588 454.429590017825 56.1756 464.38205585264376 26 474.3345216874625 36.400000000000006 484.28698752228127 46.80000000000001 494.2394533571 57.20000000000002 504.19191919191877 67.60000000000002 514.1443850267375 78 524.0968508615563 88.4 534.049316696375 98.80000000000001 544.0017825311937 109.20000000000002 553.9542483660125 119.6 563.9067142008313 130 573.85918003565 135.2 583.8116458704687 140.4 593.7641117052875 145.60000000000002 603.7165775401063 150.8 613.669043374925 156 623.6215092097437 161.2 633.5739750445625 166.4 643.5264408793813 166.4 653.4789067142 171.60000000000002 663.4313725490188 176.8 663.4313725490188 260 106.0932857991687 260 z"></path><path transform="translate(1, 1)" stroke-opacity="0.05"  stroke-width="5" stroke="rgb(0, 0, 0)" fill="none" d="M 106.0932857991687 259.974 L 116.04575163398745 259.87 125.9982174688062 259.74 135.95068330362494 259.376 145.9031491384437 259.22 155.85561497326245 258.96 165.8080808080812 257.7848 175.76054664289995 256.568 185.7130124777187 255.4812 195.66547831253746 254.488 205.6179441473562 251.654 215.57040998217497 247.1508 225.52287581699372 242.7256 235.47534165181247 237.9624 245.42780748663122 232.8508 255.38027332144998 228.1292 265.3327391562687 223.1372 275.2852049910875 216.6372 285.2376708259062 211.1252 295.190136660725 205.2024 305.1426024955437 199.4564 315.0950683303625 191.9216 325.0475341651812 184.7144 335 177.24200000000002 344.9524658348187 169.598 354.9049316696375 160.914 364.85739750445623 149.734 374.80986333927495 140.1712 384.76232917409374 127.9564 394.71479500891246 114.738 404.66726084373124 103.67760000000001 414.61972667854997 93.3452 424.57219251336875 83.4496 434.5246583481875 73.8192 444.47712418300625 65.3588 454.429590017825 56.1756 464.38205585264376 26 474.3345216874625 36.400000000000006 484.28698752228127 46.80000000000001 494.2394533571 57.20000000000002 504.19191919191877 67.60000000000002 514.1443850267375 78 524.0968508615563 88.4 534.049316696375 98.80000000000001 544.0017825311937 109.20000000000002 553.9542483660125 119.6 563.9067142008313 130 573.85918003565 135.2 583.8116458704687 140.4 593.7641117052875 145.60000000000002 603.7165775401063 150.8 613.669043374925 156 623.6215092097437 161.2 633.5739750445625 166.4 643.5264408793813 166.4 653.4789067142 171.60000000000002 663.4313725490188 176.8"></path><path transform="translate(1, 1)" stroke-opacity="0.1"  stroke-width="3" stroke="rgb(0, 0, 0)" fill="none" d="M 106.0932857991687 259.974 L 116.04575163398745 259.87 125.9982174688062 259.74 135.95068330362494 259.376 145.9031491384437 259.22 155.85561497326245 258.96 165.8080808080812 257.7848 175.76054664289995 256.568 185.7130124777187 255.4812 195.66547831253746 254.488 205.6179441473562 251.654 215.57040998217497 247.1508 225.52287581699372 242.7256 235.47534165181247 237.9624 245.42780748663122 232.8508 255.38027332144998 228.1292 265.3327391562687 223.1372 275.2852049910875 216.6372 285.2376708259062 211.1252 295.190136660725 205.2024 305.1426024955437 199.4564 315.0950683303625 191.9216 325.0475341651812 184.7144 335 177.24200000000002 344.9524658348187 169.598 354.9049316696375 160.914 364.85739750445623 149.734 374.80986333927495 140.1712 384.76232917409374 127.9564 394.71479500891246 114.738 404.66726084373124 103.67760000000001 414.61972667854997 93.3452 424.57219251336875 83.4496 434.5246583481875 73.8192 444.47712418300625 65.3588 454.429590017825 56.1756 464.38205585264376 26 474.3345216874625 36.400000000000006 484.28698752228127 46.80000000000001 494.2394533571 57.20000000000002 504.19191919191877 67.60000000000002 514.1443850267375 78 524.0968508615563 88.4 534.049316696375 98.80000000000001 544.0017825311937 109.20000000000002 553.9542483660125 119.6 563.9067142008313 130 573.85918003565 135.2 583.8116458704687 140.4 593.7641117052875 145.60000000000002 603.7165775401063 150.8 613.669043374925 156 623.6215092097437 161.2 633.5739750445625 166.4 643.5264408793813 166.4 653.4789067142 171.60000000000002 663.4313725490188 176.8"></path><path transform="translate(1, 1)" stroke-opacity="0.15000000000000002"  stroke-width="1" stroke="rgb(0, 0, 0)" fill="none" d="M 106.0932857991687 259.974 L 116.04575163398745 259.87 125.9982174688062 259.74 135.95068330362494 259.376 145.9031491384437 259.22 155.85561497326245 258.96 165.8080808080812 257.7848 175.76054664289995 256.568 185.7130124777187 255.4812 195.66547831253746 254.488 205.6179441473562 251.654 215.57040998217497 247.1508 225.52287581699372 242.7256 235.47534165181247 237.9624 245.42780748663122 232.8508 255.38027332144998 228.1292 265.3327391562687 223.1372 275.2852049910875 216.6372 285.2376708259062 211.1252 295.190136660725 205.2024 305.1426024955437 199.4564 315.0950683303625 191.9216 325.0475341651812 184.7144 335 177.24200000000002 344.9524658348187 169.598 354.9049316696375 160.914 364.85739750445623 149.734 374.80986333927495 140.1712 384.76232917409374 127.9564 394.71479500891246 114.738 404.66726084373124 103.67760000000001 414.61972667854997 93.3452 424.57219251336875 83.4496 434.5246583481875 73.8192 444.47712418300625 65.3588 454.429590017825 56.1756 464.38205585264376 26 474.3345216874625 36.400000000000006 484.28698752228127 46.80000000000001 494.2394533571 57.20000000000002 504.19191919191877 67.60000000000002 514.1443850267375 78 524.0968508615563 88.4 534.049316696375 98.80000000000001 544.0017825311937 109.20000000000002 553.9542483660125 119.6 563.9067142008313 130 573.85918003565 135.2 583.8116458704687 140.4 593.7641117052875 145.60000000000002 603.7165775401063 150.8 613.669043374925 156 623.6215092097437 161.2 633.5739750445625 166.4 643.5264408793813 166.4 653.4789067142 171.60000000000002 663.4313725490188 176.8"></path><path stroke-width="2px" stroke="#AA4643" fill="none" d="M 106.0932857991687 259.974 L 116.04575163398745 259.87 125.9982174688062 259.74 135.95068330362494 259.376 145.9031491384437 259.22 155.85561497326245 258.96 165.8080808080812 257.7848 175.76054664289995 256.568 185.7130124777187 255.4812 195.66547831253746 254.488 205.6179441473562 251.654 215.57040998217497 247.1508 225.52287581699372 242.7256 235.47534165181247 237.9624 245.42780748663122 232.8508 255.38027332144998 228.1292 265.3327391562687 223.1372 275.2852049910875 216.6372 285.2376708259062 211.1252 295.190136660725 205.2024 305.1426024955437 199.4564 315.0950683303625 191.9216 325.0475341651812 184.7144 335 177.24200000000002 344.9524658348187 169.598 354.9049316696375 160.914 364.85739750445623 149.734 374.80986333927495 140.1712 384.76232917409374 127.9564 394.71479500891246 114.738 404.66726084373124 103.67760000000001 414.61972667854997 93.3452 424.57219251336875 83.4496 434.5246583481875 73.8192 444.47712418300625 65.3588 454.429590017825 56.1756 464.38205585264376 26 474.3345216874625 36.400000000000006 484.28698752228127 46.80000000000001 494.2394533571 57.20000000000002 504.19191919191877 67.60000000000002 514.1443850267375 78 524.0968508615563 88.4 534.049316696375 98.80000000000001 544.0017825311937 109.20000000000002 553.9542483660125 119.6 563.9067142008313 130 573.85918003565 135.2 583.8116458704687 140.4 593.7641117052875 145.60000000000002 603.7165775401063 150.8 613.669043374925 156 623.6215092097437 161.2 633.5739750445625 166.4 643.5264408793813 166.4 653.4789067142 171.60000000000002 663.4313725490188 176.8"></path></g><g  class="highcharts-axis"><path stroke-width="1" stroke="#C0D0E0" fill="none" d="M 87.5 310 L 87.5 315"></path><text transform="rotate(0, 87, 324)" text-anchor="middle" style="color: rgb(102, 102, 102); font-size: 11px; font-family: 'lucida grande','lucida sans unicode',verdana,arial,helvetica,sans-serif;" fill="#666" y="324" x="87"><tspan x="87">1940</tspan></text><path stroke-width="1" stroke="#C0D0E0" fill="none" d="M 186.5 310 L 186.5 315"></path><text transform="rotate(0, 186, 324)" text-anchor="middle" style="color: rgb(102, 102, 102); font-size: 11px; font-family: 'lucida grande','lucida sans unicode',verdana,arial,helvetica,sans-serif;" fill="#666" y="324" x="186"><tspan x="186">1950</tspan></text><path stroke-width="1" stroke="#C0D0E0" fill="none" d="M 286.5 310 L 286.5 315"></path><text transform="rotate(0, 286, 324)" text-anchor="middle" style="color: rgb(102, 102, 102); font-size: 11px; font-family: 'lucida grande','lucida sans unicode',verdana,arial,helvetica,sans-serif;" fill="#666" y="324" x="286"><tspan x="286">1960</tspan></text><path stroke-width="1" stroke="#C0D0E0" fill="none" d="M 385.5 310 L 385.5 315"></path><text transform="rotate(0, 385, 324)" text-anchor="middle" style="color: rgb(102, 102, 102); font-size: 11px; font-family: 'lucida grande','lucida sans unicode',verdana,arial,helvetica,sans-serif;" fill="#666" y="324" x="385"><tspan x="385">1970</tspan></text><path stroke-width="1" stroke="#C0D0E0" fill="none" d="M 485.5 310 L 485.5 315"></path><text transform="rotate(0, 485, 324)" text-anchor="middle" style="color: rgb(102, 102, 102); font-size: 11px; font-family: 'lucida grande','lucida sans unicode',verdana,arial,helvetica,sans-serif;" fill="#666" y="324" x="485"><tspan x="485">1980</tspan></text><path stroke-width="1" stroke="#C0D0E0" fill="none" d="M 584.5 310 L 584.5 315"></path><text transform="rotate(0, 584, 324)" text-anchor="middle" style="color: rgb(102, 102, 102); font-size: 11px; font-family: 'lucida grande','lucida sans unicode',verdana,arial,helvetica,sans-serif;" fill="#666" y="324" x="584"><tspan x="584">1990</tspan></text><path stroke-width="1" stroke="#C0D0E0" fill="none" d="M 684.5 310 L 684.5 315"></path><text transform="rotate(0, 684, 324)" text-anchor="middle" style="color: rgb(102, 102, 102); font-size: 11px; font-family: 'lucida grande','lucida sans unicode',verdana,arial,helvetica,sans-serif;" fill="#666" y="324" x="684"><tspan x="684">2000</tspan></text></g><path  stroke-width="1" stroke="#C0D0E0" fill="none" d="M 80 310.5 L 750 310.5"></path><g  class="highcharts-axis"><text transform="rotate(0, 72, 313)" text-anchor="end" style="color: rgb(102, 102, 102); font-size: 11px; font-family: 'lucida grande','lucida sans unicode',verdana,arial,helvetica,sans-serif;" fill="#666" y="313" x="72"><tspan x="72">0k</tspan></text><text transform="rotate(0, 72, 261)" text-anchor="end" style="color: rgb(102, 102, 102); font-size: 11px; font-family: 'lucida grande','lucida sans unicode',verdana,arial,helvetica,sans-serif;" fill="#666" y="261" x="72"><tspan x="72">10k</tspan></text><text transform="rotate(0, 72, 209)" text-anchor="end" style="color: rgb(102, 102, 102); font-size: 11px; font-family: 'lucida grande','lucida sans unicode',verdana,arial,helvetica,sans-serif;" fill="#666" y="209" x="72"><tspan x="72">20k</tspan></text><text transform="rotate(0, 72, 157)" text-anchor="end" style="color: rgb(102, 102, 102); font-size: 11px; font-family: 'lucida grande','lucida sans unicode',verdana,arial,helvetica,sans-serif;" fill="#666" y="157" x="72"><tspan x="72">30k</tspan></text><text transform="rotate(0, 72, 105)" text-anchor="end" style="color: rgb(102, 102, 102); font-size: 11px; font-family: 'lucida grande','lucida sans unicode',verdana,arial,helvetica,sans-serif;" fill="#666" y="105" x="72"><tspan x="72">40k</tspan></text><text transform="rotate(0, 72, 53)" text-anchor="end" style="color: rgb(102, 102, 102); font-size: 11px; font-family: 'lucida grande','lucida sans unicode',verdana,arial,helvetica,sans-serif;" fill="#666" y="53" x="72"><tspan x="72">50k</tspan></text></g><text  transform="rotate(270, 40, 180)" text-anchor="middle" style="color: rgb(109, 134, 159); font-weight: bold; font-family: 'lucida grande','lucida sans unicode',verdana,arial,helvetica,sans-serif; font-size: 12px;" fill="#6D869F" y="180" x="40"><tspan x="40">Nuclear weapon states</tspan></text><g transform="translate(318, 359)"  class="highcharts-legend"><rect stroke-width="1" stroke="#909090" fill="none" ry="5" rx="5" height="25" width="193" y="0.5" x="0.5"></rect><text  style="cursor: pointer; color: rgb(62, 87, 111); fill: rgb(62, 87, 111);" fill="#000000" y="18" x="30"><tspan x="30">USA</tspan></text><text  style="cursor: pointer; color: rgb(62, 87, 111); fill: rgb(62, 87, 111);" fill="#000000" y="18" x="97"><tspan x="97">USSR/Russia</tspan></text><rect transform="translate(30, 18)" stroke="#4572A7"  stroke-width="0" fill="#4572A7" ry="2" rx="2" height="12" width="16" y="-11" x="-21"></rect><rect transform="translate(97, 18)" stroke="#AA4643"  stroke-width="0" fill="#AA4643" ry="2" rx="2" height="12" width="16" y="-11" x="-21"></rect></g><g  class="highcharts-tooltip"><rect transform="translate(1, 1)" stroke-opacity="0.05" stroke="rgb(0, 0, 0)"  stroke-width="5" fill-opacity="0.85" fill="none" ry="5" rx="5" height="0" width="0" y="2" x="2"></rect><rect transform="translate(1, 1)" stroke-opacity="0.1" stroke="rgb(0, 0, 0)"  stroke-width="3" fill-opacity="0.85" fill="none" ry="5" rx="5" height="0" width="0" y="2" x="2"></rect><rect transform="translate(1, 1)" stroke-opacity="0.15000000000000002" stroke="rgb(0, 0, 0)"  stroke-width="1" fill-opacity="0.85" fill="none" ry="5" rx="5" height="0" width="0" y="2" x="2"></rect><rect stroke-width="2" fill-opacity="0.85" fill="rgb(255,255,255)" ry="5" rx="5" height="0" width="0" y="2" x="2"></rect><text  style="color: rgb(51, 51, 51); font-size: 12px; padding: 0pt; white-space: nowrap; fill: rgb(51, 51, 51);" fill="#000000" y="14" x="2"><tspan x="2"> </tspan></text></g><text  transform="rotate(0, 790, 395)" text-anchor="end" style="cursor: pointer; color: rgb(144, 144, 144); font-size: 10px; font-family: 'lucida grande','lucida sans unicode',verdana,arial,helvetica,sans-serif;" fill="#909090" y="395" x="790"><tspan x="790">Eos87</tspan></text><g transform="translate(80, 50)"  class="highcharts-tracker"><path style=""  visibility="visible" stroke-linecap="round" stroke-width="22" stroke="rgb(192,192,192)" stroke-opacity="0.000001"  fill="none" d="M 56.33095662507495 259.9688 L 66.2834224598937 259.9428 76.23588829471245 259.8336 86.1883541295312 259.428 96.14081996434994 258.778 106.0932857991687 258.0812 116.04575163398745 256.672 125.9982174688062 254.774 135.95068330362494 252.5328 145.9031491384437 249.2724 155.85561497326245 244.1036 165.8080808080812 235.9864 175.76054664289995 226.4912 185.7130124777187 208.9256 195.66547831253746 179.5664 205.6179441473562 153.7432 215.57040998217497 134.5448 225.52287581699372 117.58760000000001 235.47534165181247 106.8132 245.42780748663122 98.50880000000001 255.38027332144998 93.6936 265.3327391562687 93.392 275.2852049910875 97.58840000000001 285.2376708259062 108.0352 295.190136660725 117.82160000000002 305.1426024955437 121.35760000000002 315.0950683303625 119.8288 325.0475341651812 114.85760000000002 335 109.20520000000002 344.9524658348187 109.382 354.9049316696375 115.3048 364.85739750445623 126.98920000000001 374.80986333927495 126.2456 384.76232917409374 130.9048 394.71479500891246 132.054 404.66726084373124 133.6192 414.61972667854997 137.9872 424.57219251336875 136.7184 434.5246583481875 134.6852 444.47712418300625 133.3436 454.429590017825 133.9676 464.38205585264376 133.1148 474.3345216874625 133.4112 484.28698752228127 137.3528 494.2394533571 143.62400000000002 504.19191919191877 150.7792 514.1443850267375 170.1076 524.0968508615563 183.31560000000002 534.049316696375 192.0048 544.0017825311937 194.714 553.9542483660125 196.8512 563.9067142008313 202.7532 573.85918003565 203.06 583.8116458704687 203.4708 593.7641117052875 203.7152 603.7165775401063 204.9996 613.669043374925 205.2596 623.6215092097437 205.53 633.5739750445625 205.8108 643.5264408793813 206.1384 653.4789067142 206.466 663.4313725490188 207.4592"></path><path style=""  visibility="visible" stroke-linecap="round" stroke-width="22" stroke="rgb(192,192,192)" stroke-opacity="0.000001"  fill="none" d="M 106.0932857991687 259.974 L 116.04575163398745 259.87 125.9982174688062 259.74 135.95068330362494 259.376 145.9031491384437 259.22 155.85561497326245 258.96 165.8080808080812 257.7848 175.76054664289995 256.568 185.7130124777187 255.4812 195.66547831253746 254.488 205.6179441473562 251.654 215.57040998217497 247.1508 225.52287581699372 242.7256 235.47534165181247 237.9624 245.42780748663122 232.8508 255.38027332144998 228.1292 265.3327391562687 223.1372 275.2852049910875 216.6372 285.2376708259062 211.1252 295.190136660725 205.2024 305.1426024955437 199.4564 315.0950683303625 191.9216 325.0475341651812 184.7144 335 177.24200000000002 344.9524658348187 169.598 354.9049316696375 160.914 364.85739750445623 149.734 374.80986333927495 140.1712 384.76232917409374 127.9564 394.71479500891246 114.738 404.66726084373124 103.67760000000001 414.61972667854997 93.3452 424.57219251336875 83.4496 434.5246583481875 73.8192 444.47712418300625 65.3588 454.429590017825 56.1756 464.38205585264376 26 474.3345216874625 36.400000000000006 484.28698752228127 46.80000000000001 494.2394533571 57.20000000000002 504.19191919191877 67.60000000000002 514.1443850267375 78 524.0968508615563 88.4 534.049316696375 98.80000000000001 544.0017825311937 109.20000000000002 553.9542483660125 119.6 563.9067142008313 130 573.85918003565 135.2 583.8116458704687 140.4 593.7641117052875 145.60000000000002 603.7165775401063 150.8 613.669043374925 156 623.6215092097437 161.2 633.5739750445625 166.4 643.5264408793813 166.4 653.4789067142 171.60000000000002 663.4313725490188 176.8"></path></g></svg>